<svg xmlns="http://www.w3.org/2000/svg" viewBox="0 0 1200 650"><rect width="1200" height="650" fill="#0b0f16"/><g font-family="Arial,sans-serif" fill="#dce7e4"><text x="30" y="42" font-size="24">Age Distribution</text><text x="560" y="42" font-size="24">Gender Distribution</text><text x="30" y="230" font-size="22">Location Distribution</text><text x="30" y="430" font-size="20">Device Type</text><text x="380" y="430" font-size="20">Average Purchases by Device</text><text x="750" y="430" font-size="20">Customer Segmentation</text></g><g fill="#48f0cf"><rect x="35" y="155" width="65" height="45"/><rect x="125" y="95" width="65" height="105"/><rect x="215" y="82" width="65" height="118"/><rect x="305" y="112" width="65" height="88"/><rect x="395" y="145" width="65" height="55"/></g><circle cx="720" cy="105" r="52" fill="#386b9d"/><path d="M720 53 A52 52 0 0 1 768 125 L720 105Z" fill="#b9e7dc"/><g font-family="monospace" font-size="14" fill="#8f9baa"><text x="30" y="260">Delhi</text><text x="30" y="295">Kolkata</text><text x="30" y="330">Ahmedabad</text><text x="30" y="365">Hyderabad</text></g><g fill="#48f0cf"><rect x="100" y="248" width="760" height="18"/><rect x="100" y="283" width="748" height="18"/><rect x="100" y="318" width="655" height="18"/><rect x="100" y="353" width="655" height="18"/></g><g fill="#355c8c"><rect x="35" y="470" width="90" height="80"/><rect x="150" y="485" width="90" height="65"/><rect x="265" y="490" width="90" height="60"/></g><g fill="#8b7cff"><rect x="400" y="475" width="90" height="75"/><rect x="515" y="480" width="90" height="70"/><rect x="630" y="487" width="90" height="63"/></g><g fill="none" stroke="#48f0cf" stroke-width="2"><circle cx="790" cy="480" r="6"/><circle cx="850" cy="520" r="6"/><circle cx="910" cy="465" r="6"/><circle cx="970" cy="535" r="6"/><circle cx="1030" cy="490" r="6"/><circle cx="1090" cy="550" r="6"/></g><text x="30" y="610" fill="#657286" font-family="monospace" font-size="13">500 CUSTOMERS · 8 LOCATIONS · 3 DEVICES · 80.2% PURCHASE RATE</text></svg>